{
    "asset" : {
        "generator" : "Khronos glTF Blender I/O v1.3.48",
        "version" : "2.0"
    },
    "scene" : 0,
    "scenes" : [
        {
            "name" : "Scene",
            "nodes" : [
                3
            ]
        }
    ],
    "nodes" : [
        {
            "name" : "Bone.001",
            "rotation" : [
                -0.009229883551597595,
                -3.2379125287007246e-14,
                2.200575277555572e-09,
                0.9999574422836304
            ],
            "scale" : [
                1,
                1,
                0.9999999403953552
            ],
            "translation" : [
                3.5544167973596333e-16,
                0.8002982139587402,
                -9.311638682341083e-10
            ]
        },
        {
            "children" : [
                0
            ],
            "name" : "Bone",
            "rotation" : [
                0.9999887347221375,
                -3.064094089566538e-09,
                -1.1922510623207927e-07,
                -0.0047458685003221035
            ]
        },
        {
            "mesh" : 0,
            "name" : "LittleArmShaped",
            "skin" : 0
        },
        {
            "children" : [
                2,
                1
            ],
            "name" : "Armature",
            "translation" : [
                0,
                0.7899884581565857,
                0.007596042472869158
            ]
        }
    ],
    "animations" : [
        {
            "channels" : [
                {
                    "sampler" : 0,
                    "target" : {
                        "node" : 1,
                        "path" : "translation"
                    }
                },
                {
                    "sampler" : 1,
                    "target" : {
                        "node" : 1,
                        "path" : "rotation"
                    }
                },
                {
                    "sampler" : 2,
                    "target" : {
                        "node" : 1,
                        "path" : "scale"
                    }
                },
                {
                    "sampler" : 3,
                    "target" : {
                        "node" : 0,
                        "path" : "translation"
                    }
                },
                {
                    "sampler" : 4,
                    "target" : {
                        "node" : 0,
                        "path" : "rotation"
                    }
                },
                {
                    "sampler" : 5,
                    "target" : {
                        "node" : 0,
                        "path" : "scale"
                    }
                }
            ],
            "name" : "ArmatureAction",
            "samplers" : [
                {
                    "input" : 9,
                    "interpolation" : "LINEAR",
                    "output" : 10
                },
                {
                    "input" : 9,
                    "interpolation" : "LINEAR",
                    "output" : 11
                },
                {
                    "input" : 9,
                    "interpolation" : "LINEAR",
                    "output" : 12
                },
                {
                    "input" : 9,
                    "interpolation" : "LINEAR",
                    "output" : 13
                },
                {
                    "input" : 9,
                    "interpolation" : "LINEAR",
                    "output" : 14
                },
                {
                    "input" : 9,
                    "interpolation" : "LINEAR",
                    "output" : 15
                }
            ]
        }
    ],
    "materials" : [
        {
            "doubleSided" : true,
            "emissiveFactor" : [
                0,
                0,
                0
            ],
            "name" : "arm_mat29",
            "pbrMetallicRoughness" : {
                "baseColorFactor" : [
                    0.8000000715255737,
                    0.6619338989257812,
                    0.08659215271472931,
                    1
                ],
                "metallicFactor" : 0,
                "roughnessFactor" : 0.4000000059604645
            }
        }
    ],
    "meshes" : [
        {
            "extras" : {
                "targetNames" : [
                    "Key 1"
                ]
            },
            "name" : "Cube",
            "primitives" : [
                {
                    "attributes" : {
                        "POSITION" : 0,
                        "NORMAL" : 1,
                        "TEXCOORD_0" : 2,
                        "JOINTS_0" : 3,
                        "WEIGHTS_0" : 4
                    },
                    "indices" : 5,
                    "material" : 0,
                    "targets" : [
                        {
                            "POSITION" : 6,
                            "NORMAL" : 7
                        }
                    ]
                }
            ],
            "weights" : [
                0
            ]
        }
    ],
    "skins" : [
        {
            "inverseBindMatrices" : 8,
            "joints" : [
                1,
                0
            ],
            "name" : "Armature"
        }
    ],
    "accessors" : [
        {
            "bufferView" : 0,
            "componentType" : 5126,
            "count" : 357,
            "max" : [
                0.22916670143604279,
                0.9598767161369324,
                0.22916670143604279
            ],
            "min" : [
                -0.22916670143604279,
                -0.9598767161369324,
                -0.22916670143604279
            ],
            "type" : "VEC3"
        },
        {
            "bufferView" : 1,
            "componentType" : 5126,
            "count" : 357,
            "type" : "VEC3"
        },
        {
            "bufferView" : 2,
            "componentType" : 5126,
            "count" : 357,
            "type" : "VEC2"
        },
        {
            "bufferView" : 3,
            "componentType" : 5123,
            "count" : 357,
            "type" : "VEC4"
        },
        {
            "bufferView" : 4,
            "componentType" : 5126,
            "count" : 357,
            "type" : "VEC4"
        },
        {
            "bufferView" : 5,
            "componentType" : 5123,
            "count" : 1728,
            "type" : "SCALAR"
        },
        {
            "bufferView" : 6,
            "componentType" : 5126,
            "count" : 357,
            "max" : [
                0.09109260141849518,
                0.07586133480072021,
                0.09109260141849518
            ],
            "min" : [
                -0.09109260141849518,
                -0.21268177032470703,
                -0.09109260141849518
            ],
            "type" : "VEC3"
        },
        {
            "bufferView" : 7,
            "componentType" : 5126,
            "count" : 357,
            "type" : "VEC3"
        },
        {
            "bufferView" : 8,
            "componentType" : 5126,
            "count" : 2,
            "type" : "MAT4"
        },
        {
            "bufferView" : 9,
            "componentType" : 5126,
            "count" : 50,
            "max" : [
                2.0833333333333335
            ],
            "min" : [
                0.041666666666666664
            ],
            "type" : "SCALAR"
        },
        {
            "bufferView" : 10,
            "componentType" : 5126,
            "count" : 50,
            "type" : "VEC3"
        },
        {
            "bufferView" : 11,
            "componentType" : 5126,
            "count" : 50,
            "type" : "VEC4"
        },
        {
            "bufferView" : 12,
            "componentType" : 5126,
            "count" : 50,
            "type" : "VEC3"
        },
        {
            "bufferView" : 13,
            "componentType" : 5126,
            "count" : 50,
            "type" : "VEC3"
        },
        {
            "bufferView" : 14,
            "componentType" : 5126,
            "count" : 50,
            "type" : "VEC4"
        },
        {
            "bufferView" : 15,
            "componentType" : 5126,
            "count" : 50,
            "type" : "VEC3"
        }
    ],
    "bufferViews" : [
        {
            "buffer" : 0,
            "byteLength" : 4284,
            "byteOffset" : 0
        },
        {
            "buffer" : 0,
            "byteLength" : 4284,
            "byteOffset" : 4284
        },
        {
            "buffer" : 0,
            "byteLength" : 2856,
            "byteOffset" : 8568
        },
        {
            "buffer" : 0,
            "byteLength" : 2856,
            "byteOffset" : 11424
        },
        {
            "buffer" : 0,
            "byteLength" : 5712,
            "byteOffset" : 14280
        },
        {
            "buffer" : 0,
            "byteLength" : 3456,
            "byteOffset" : 19992
        },
        {
            "buffer" : 0,
            "byteLength" : 4284,
            "byteOffset" : 23448
        },
        {
            "buffer" : 0,
            "byteLength" : 4284,
            "byteOffset" : 27732
        },
        {
            "buffer" : 0,
            "byteLength" : 128,
            "byteOffset" : 32016
        },
        {
            "buffer" : 0,
            "byteLength" : 200,
            "byteOffset" : 32144
        },
        {
            "buffer" : 0,
            "byteLength" : 600,
            "byteOffset" : 32344
        },
        {
            "buffer" : 0,
            "byteLength" : 800,
            "byteOffset" : 32944
        },
        {
            "buffer" : 0,
            "byteLength" : 600,
            "byteOffset" : 33744
        },
        {
            "buffer" : 0,
            "byteLength" : 600,
            "byteOffset" : 34344
        },
        {
            "buffer" : 0,
            "byteLength" : 800,
            "byteOffset" : 34944
        },
        {
            "buffer" : 0,
            "byteLength" : 600,
            "byteOffset" : 35744
        }
    ],
    "buffers" : [
        {
            "byteLength" : 36344,
            "uri" : "data:application/octet-stream;base64,"
        }
    ]
}
