{
    "asset" : {
        "generator" : "Khronos glTF Blender I/O v1.3.48",
        "version" : "2.0"
    },
    "scene" : 0,
    "scenes" : [
        {
            "name" : "Scene",
            "nodes" : [
                0
            ]
        }
    ],
    "nodes" : [
        {
            "mesh" : 0,
            "name" : "Mesh_2Mat_1Blend"
        }
    ],
    "materials" : [
        {
            "doubleSided" : true,
            "emissiveFactor" : [
                0,
                0,
                0
            ],
            "name" : "Mesh_2Mat_1Blend_Mat1",
            "pbrMetallicRoughness" : {
                "baseColorFactor" : [
                    0.8000000715255737,
                    0.26338624954223633,
                    0.5247235894203186,
                    1
                ],
                "metallicFactor" : 0,
                "roughnessFactor" : 0.5
            }
        },
        {
            "doubleSided" : true,
            "emissiveFactor" : [
                0,
                0,
                0
            ],
            "name" : "Mesh_2Mat_1Blend_Mat2",
            "pbrMetallicRoughness" : {
                "baseColorFactor" : [
                    0.20149341225624084,
                    0.2652633488178253,
                    0.8000000715255737,
                    1
                ],
                "metallicFactor" : 0,
                "roughnessFactor" : 0.5
            }
        }
    ],
    "meshes" : [
        {
            "extras" : {
                "targetNames" : [
                    "Key 1"
                ]
            },
            "name" : "Cube.003",
            "primitives" : [
                {
                    "attributes" : {
                        "POSITION" : 0,
                        "NORMAL" : 1,
                        "TEXCOORD_0" : 2
                    },
                    "indices" : 3,
                    "material" : 0,
                    "targets" : [
                        {
                            "POSITION" : 4,
                            "NORMAL" : 5
                        }
                    ]
                },
                {
                    "attributes" : {
                        "POSITION" : 6,
                        "NORMAL" : 7,
                        "TEXCOORD_0" : 8
                    },
                    "indices" : 9,
                    "material" : 1,
                    "targets" : [
                        {
                            "POSITION" : 10,
                            "NORMAL" : 11
                        }
                    ]
                }
            ],
            "weights" : [
                0
            ]
        }
    ],
    "accessors" : [
        {
            "bufferView" : 0,
            "componentType" : 5126,
            "count" : 80,
            "max" : [
                1.257285475730896e-08,
                0.41975313425064087,
                0.41975313425064087
            ],
            "min" : [
                -0.41975313425064087,
                -0.41975313425064087,
                -0.41975313425064087
            ],
            "type" : "VEC3"
        },
        {
            "bufferView" : 1,
            "componentType" : 5126,
            "count" : 80,
            "type" : "VEC3"
        },
        {
            "bufferView" : 2,
            "componentType" : 5126,
            "count" : 80,
            "type" : "VEC2"
        },
        {
            "bufferView" : 3,
            "componentType" : 5123,
            "count" : 288,
            "type" : "SCALAR"
        },
        {
            "bufferView" : 4,
            "componentType" : 5126,
            "count" : 80,
            "max" : [
                0.04552275687456131,
                0.09183284640312195,
                0.1126951277256012
            ],
            "min" : [
                -0.11670708656311035,
                -0.1142929196357727,
                -0.14807447791099548
            ],
            "type" : "VEC3"
        },
        {
            "bufferView" : 5,
            "componentType" : 5126,
            "count" : 80,
            "type" : "VEC3"
        },
        {
            "bufferView" : 6,
            "componentType" : 5126,
            "count" : 65,
            "max" : [
                0.41975313425064087,
                0.41975313425064087,
                0.41975313425064087
            ],
            "min" : [
                -1.257285475730896e-08,
                -0.41975313425064087,
                -0.41975313425064087
            ],
            "type" : "VEC3"
        },
        {
            "bufferView" : 7,
            "componentType" : 5126,
            "count" : 65,
            "type" : "VEC3"
        },
        {
            "bufferView" : 8,
            "componentType" : 5126,
            "count" : 65,
            "type" : "VEC2"
        },
        {
            "bufferView" : 9,
            "componentType" : 5123,
            "count" : 288,
            "type" : "SCALAR"
        },
        {
            "bufferView" : 10,
            "componentType" : 5126,
            "count" : 65,
            "max" : [
                0.12885919213294983,
                0.09220290184020996,
                0.11943703889846802
            ],
            "min" : [
                -0.0446469709277153,
                -0.1142929196357727,
                -0.10542887449264526
            ],
            "type" : "VEC3"
        },
        {
            "bufferView" : 11,
            "componentType" : 5126,
            "count" : 65,
            "type" : "VEC3"
        }
    ],
    "bufferViews" : [
        {
            "buffer" : 0,
            "byteLength" : 960,
            "byteOffset" : 0
        },
        {
            "buffer" : 0,
            "byteLength" : 960,
            "byteOffset" : 960
        },
        {
            "buffer" : 0,
            "byteLength" : 640,
            "byteOffset" : 1920
        },
        {
            "buffer" : 0,
            "byteLength" : 576,
            "byteOffset" : 2560
        },
        {
            "buffer" : 0,
            "byteLength" : 960,
            "byteOffset" : 3136
        },
        {
            "buffer" : 0,
            "byteLength" : 960,
            "byteOffset" : 4096
        },
        {
            "buffer" : 0,
            "byteLength" : 780,
            "byteOffset" : 5056
        },
        {
            "buffer" : 0,
            "byteLength" : 780,
            "byteOffset" : 5836
        },
        {
            "buffer" : 0,
            "byteLength" : 520,
            "byteOffset" : 6616
        },
        {
            "buffer" : 0,
            "byteLength" : 576,
            "byteOffset" : 7136
        },
        {
            "buffer" : 0,
            "byteLength" : 780,
            "byteOffset" : 7712
        },
        {
            "buffer" : 0,
            "byteLength" : 780,
            "byteOffset" : 8492
        }
    ],
    "buffers" : [
        {
            "byteLength" : 9272,
            "uri" : "data:application/octet-stream;base64,"
        }
    ]
}
