{
    "asset" : {
        "generator" : "Khronos glTF Blender I/O v1.3.48",
        "version" : "2.0"
    },
    "scene" : 0,
    "scenes" : [
        {
            "name" : "Scene",
            "nodes" : [
                3
            ]
        }
    ],
    "nodes" : [
        {
            "name" : "LowerArm",
            "translation" : [
                0,
                0.8740102052688599,
                0
            ]
        },
        {
            "children" : [
                0
            ],
            "name" : "UpperArm",
            "rotation" : [
                0.7071068286895752,
                0,
                -0.7071068286895752,
                0
            ],
            "translation" : [
                0,
                0.8756550550460815,
                0
            ]
        },
        {
            "mesh" : 0,
            "name" : "SkinnedMesh_2Mat_0Blend",
            "skin" : 0
        },
        {
            "children" : [
                2,
                1
            ],
            "name" : "SkinnedMesh_2Mat_0Blend_Armature"
        }
    ],
    "animations" : [
        {
            "channels" : [
                {
                    "sampler" : 0,
                    "target" : {
                        "node" : 1,
                        "path" : "translation"
                    }
                },
                {
                    "sampler" : 1,
                    "target" : {
                        "node" : 1,
                        "path" : "rotation"
                    }
                },
                {
                    "sampler" : 2,
                    "target" : {
                        "node" : 1,
                        "path" : "scale"
                    }
                },
                {
                    "sampler" : 3,
                    "target" : {
                        "node" : 0,
                        "path" : "translation"
                    }
                },
                {
                    "sampler" : 4,
                    "target" : {
                        "node" : 0,
                        "path" : "rotation"
                    }
                },
                {
                    "sampler" : 5,
                    "target" : {
                        "node" : 0,
                        "path" : "scale"
                    }
                }
            ],
            "name" : "ArmBend.001",
            "samplers" : [
                {
                    "input" : 13,
                    "interpolation" : "LINEAR",
                    "output" : 14
                },
                {
                    "input" : 13,
                    "interpolation" : "LINEAR",
                    "output" : 15
                },
                {
                    "input" : 13,
                    "interpolation" : "LINEAR",
                    "output" : 16
                },
                {
                    "input" : 13,
                    "interpolation" : "LINEAR",
                    "output" : 17
                },
                {
                    "input" : 13,
                    "interpolation" : "LINEAR",
                    "output" : 18
                },
                {
                    "input" : 13,
                    "interpolation" : "LINEAR",
                    "output" : 19
                }
            ]
        }
    ],
    "materials" : [
        {
            "emissiveFactor" : [
                0,
                0,
                0
            ],
            "name" : "SkinnedMesh_2Mat_0Blend_Mat1",
            "pbrMetallicRoughness" : {
                "baseColorFactor" : [
                    0.25422725081443787,
                    0.7367246150970459,
                    0.8000000715255737,
                    1
                ],
                "metallicFactor" : 0,
                "roughnessFactor" : 0.5
            }
        },
        {
            "doubleSided" : true,
            "emissiveFactor" : [
                0,
                0,
                0
            ],
            "name" : "SkinnedMesh_2Mat_0Blend_Mat2",
            "pbrMetallicRoughness" : {
                "baseColorFactor" : [
                    0.8000000715255737,
                    0.2039075493812561,
                    0.3146551847457886,
                    1
                ],
                "metallicFactor" : 0,
                "roughnessFactor" : 0.5
            }
        }
    ],
    "meshes" : [
        {
            "name" : "skinned_mesh.001",
            "primitives" : [
                {
                    "attributes" : {
                        "POSITION" : 0,
                        "NORMAL" : 1,
                        "TEXCOORD_0" : 2,
                        "JOINTS_0" : 3,
                        "WEIGHTS_0" : 4
                    },
                    "indices" : 5,
                    "material" : 0
                },
                {
                    "attributes" : {
                        "POSITION" : 6,
                        "NORMAL" : 7,
                        "TEXCOORD_0" : 8,
                        "JOINTS_0" : 9,
                        "WEIGHTS_0" : 10
                    },
                    "indices" : 11,
                    "material" : 1
                }
            ]
        }
    ],
    "skins" : [
        {
            "inverseBindMatrices" : 12,
            "joints" : [
                1,
                0
            ],
            "name" : "SkinnedMesh_2Mat_0Blend_Armature"
        }
    ],
    "accessors" : [
        {
            "bufferView" : 0,
            "componentType" : 5126,
            "count" : 187,
            "max" : [
                0.22916670143604279,
                0.9598767161369324,
                0.22916670143604279
            ],
            "min" : [
                -0.22916670143604279,
                0,
                -0.22916670143604279
            ],
            "type" : "VEC3"
        },
        {
            "bufferView" : 1,
            "componentType" : 5126,
            "count" : 187,
            "type" : "VEC3"
        },
        {
            "bufferView" : 2,
            "componentType" : 5126,
            "count" : 187,
            "type" : "VEC2"
        },
        {
            "bufferView" : 3,
            "componentType" : 5123,
            "count" : 187,
            "type" : "VEC4"
        },
        {
            "bufferView" : 4,
            "componentType" : 5126,
            "count" : 187,
            "type" : "VEC4"
        },
        {
            "bufferView" : 5,
            "componentType" : 5123,
            "count" : 864,
            "type" : "SCALAR"
        },
        {
            "bufferView" : 6,
            "componentType" : 5126,
            "count" : 187,
            "max" : [
                0.22916670143604279,
                0,
                0.22916670143604279
            ],
            "min" : [
                -0.22916670143604279,
                -0.9598767161369324,
                -0.22916670143604279
            ],
            "type" : "VEC3"
        },
        {
            "bufferView" : 7,
            "componentType" : 5126,
            "count" : 187,
            "type" : "VEC3"
        },
        {
            "bufferView" : 8,
            "componentType" : 5126,
            "count" : 187,
            "type" : "VEC2"
        },
        {
            "bufferView" : 9,
            "componentType" : 5123,
            "count" : 187,
            "type" : "VEC4"
        },
        {
            "bufferView" : 10,
            "componentType" : 5126,
            "count" : 187,
            "type" : "VEC4"
        },
        {
            "bufferView" : 11,
            "componentType" : 5123,
            "count" : 864,
            "type" : "SCALAR"
        },
        {
            "bufferView" : 12,
            "componentType" : 5126,
            "count" : 2,
            "type" : "MAT4"
        },
        {
            "bufferView" : 13,
            "componentType" : 5126,
            "count" : 40,
            "max" : [
                1.6666666666666667
            ],
            "min" : [
                0.041666666666666664
            ],
            "type" : "SCALAR"
        },
        {
            "bufferView" : 14,
            "componentType" : 5126,
            "count" : 40,
            "type" : "VEC3"
        },
        {
            "bufferView" : 15,
            "componentType" : 5126,
            "count" : 40,
            "type" : "VEC4"
        },
        {
            "bufferView" : 16,
            "componentType" : 5126,
            "count" : 40,
            "type" : "VEC3"
        },
        {
            "bufferView" : 17,
            "componentType" : 5126,
            "count" : 40,
            "type" : "VEC3"
        },
        {
            "bufferView" : 18,
            "componentType" : 5126,
            "count" : 40,
            "type" : "VEC4"
        },
        {
            "bufferView" : 19,
            "componentType" : 5126,
            "count" : 40,
            "type" : "VEC3"
        }
    ],
    "bufferViews" : [
        {
            "buffer" : 0,
            "byteLength" : 2244,
            "byteOffset" : 0
        },
        {
            "buffer" : 0,
            "byteLength" : 2244,
            "byteOffset" : 2244
        },
        {
            "buffer" : 0,
            "byteLength" : 1496,
            "byteOffset" : 4488
        },
        {
            "buffer" : 0,
            "byteLength" : 1496,
            "byteOffset" : 5984
        },
        {
            "buffer" : 0,
            "byteLength" : 2992,
            "byteOffset" : 7480
        },
        {
            "buffer" : 0,
            "byteLength" : 1728,
            "byteOffset" : 10472
        },
        {
            "buffer" : 0,
            "byteLength" : 2244,
            "byteOffset" : 12200
        },
        {
            "buffer" : 0,
            "byteLength" : 2244,
            "byteOffset" : 14444
        },
        {
            "buffer" : 0,
            "byteLength" : 1496,
            "byteOffset" : 16688
        },
        {
            "buffer" : 0,
            "byteLength" : 1496,
            "byteOffset" : 18184
        },
        {
            "buffer" : 0,
            "byteLength" : 2992,
            "byteOffset" : 19680
        },
        {
            "buffer" : 0,
            "byteLength" : 1728,
            "byteOffset" : 22672
        },
        {
            "buffer" : 0,
            "byteLength" : 128,
            "byteOffset" : 24400
        },
        {
            "buffer" : 0,
            "byteLength" : 160,
            "byteOffset" : 24528
        },
        {
            "buffer" : 0,
            "byteLength" : 480,
            "byteOffset" : 24688
        },
        {
            "buffer" : 0,
            "byteLength" : 640,
            "byteOffset" : 25168
        },
        {
            "buffer" : 0,
            "byteLength" : 480,
            "byteOffset" : 25808
        },
        {
            "buffer" : 0,
            "byteLength" : 480,
            "byteOffset" : 26288
        },
        {
            "buffer" : 0,
            "byteLength" : 640,
            "byteOffset" : 26768
        },
        {
            "buffer" : 0,
            "byteLength" : 480,
            "byteOffset" : 27408
        }
    ],
    "buffers" : [
        {
            "byteLength" : 27888,
            "uri" : "data:application/octet-stream;base64,"
        }
    ]
}
