{
    "asset" : {
        "generator" : "Khronos glTF Blender I/O v1.3.48",
        "version" : "2.0"
    },
    "scene" : 0,
    "scenes" : [
        {
            "name" : "Scene",
            "nodes" : [
                3
            ]
        }
    ],
    "nodes" : [
        {
            "name" : "LowerArm",
            "translation" : [
                0,
                0.8740102052688599,
                0
            ]
        },
        {
            "children" : [
                0
            ],
            "name" : "UpperArm",
            "rotation" : [
                0.7071068286895752,
                0,
                -0.7071068286895752,
                0
            ],
            "translation" : [
                0,
                0.8756550550460815,
                0
            ]
        },
        {
            "mesh" : 0,
            "name" : "SkinnedMesh_2Mat_2Blend",
            "skin" : 0
        },
        {
            "children" : [
                2,
                1
            ],
            "name" : "SkinnedMesh_2Mat_2Blend_Armature"
        }
    ],
    "animations" : [
        {
            "channels" : [
                {
                    "sampler" : 0,
                    "target" : {
                        "node" : 1,
                        "path" : "translation"
                    }
                },
                {
                    "sampler" : 1,
                    "target" : {
                        "node" : 1,
                        "path" : "rotation"
                    }
                },
                {
                    "sampler" : 2,
                    "target" : {
                        "node" : 1,
                        "path" : "scale"
                    }
                },
                {
                    "sampler" : 3,
                    "target" : {
                        "node" : 0,
                        "path" : "translation"
                    }
                },
                {
                    "sampler" : 4,
                    "target" : {
                        "node" : 0,
                        "path" : "rotation"
                    }
                },
                {
                    "sampler" : 5,
                    "target" : {
                        "node" : 0,
                        "path" : "scale"
                    }
                }
            ],
            "name" : "ArmBend.005",
            "samplers" : [
                {
                    "input" : 21,
                    "interpolation" : "LINEAR",
                    "output" : 22
                },
                {
                    "input" : 21,
                    "interpolation" : "LINEAR",
                    "output" : 23
                },
                {
                    "input" : 21,
                    "interpolation" : "LINEAR",
                    "output" : 24
                },
                {
                    "input" : 21,
                    "interpolation" : "LINEAR",
                    "output" : 25
                },
                {
                    "input" : 21,
                    "interpolation" : "LINEAR",
                    "output" : 26
                },
                {
                    "input" : 21,
                    "interpolation" : "LINEAR",
                    "output" : 27
                }
            ]
        }
    ],
    "materials" : [
        {
            "emissiveFactor" : [
                0,
                0,
                0
            ],
            "name" : "SkinnedMesh_2Mat_2Blend_Mat1",
            "pbrMetallicRoughness" : {
                "baseColorFactor" : [
                    0.18561245501041412,
                    0.13260653614997864,
                    0.8000000715255737,
                    1
                ],
                "metallicFactor" : 0,
                "roughnessFactor" : 0.5
            }
        },
        {
            "doubleSided" : true,
            "emissiveFactor" : [
                0,
                0,
                0
            ],
            "name" : "SkinnedMesh_2Mat_2Blend_Mat2",
            "pbrMetallicRoughness" : {
                "baseColorFactor" : [
                    0.3779746890068054,
                    0.8000000715255737,
                    0.06767207384109497,
                    1
                ],
                "metallicFactor" : 0,
                "roughnessFactor" : 0.5
            }
        }
    ],
    "meshes" : [
        {
            "extras" : {
                "targetNames" : [
                    "Key 1",
                    "Key 2"
                ]
            },
            "name" : "skinned_mesh.005",
            "primitives" : [
                {
                    "attributes" : {
                        "POSITION" : 0,
                        "NORMAL" : 1,
                        "TEXCOORD_0" : 2,
                        "JOINTS_0" : 3,
                        "WEIGHTS_0" : 4
                    },
                    "indices" : 5,
                    "material" : 0,
                    "targets" : [
                        {
                            "POSITION" : 6,
                            "NORMAL" : 7
                        },
                        {
                            "POSITION" : 8,
                            "NORMAL" : 9
                        }
                    ]
                },
                {
                    "attributes" : {
                        "POSITION" : 10,
                        "NORMAL" : 11,
                        "TEXCOORD_0" : 12,
                        "JOINTS_0" : 13,
                        "WEIGHTS_0" : 14
                    },
                    "indices" : 15,
                    "material" : 1,
                    "targets" : [
                        {
                            "POSITION" : 16,
                            "NORMAL" : 17
                        },
                        {
                            "POSITION" : 18,
                            "NORMAL" : 19
                        }
                    ]
                }
            ],
            "weights" : [
                0,
                0
            ]
        }
    ],
    "skins" : [
        {
            "inverseBindMatrices" : 20,
            "joints" : [
                1,
                0
            ],
            "name" : "SkinnedMesh_2Mat_2Blend_Armature"
        }
    ],
    "accessors" : [
        {
            "bufferView" : 0,
            "componentType" : 5126,
            "count" : 187,
            "max" : [
                0.22916670143604279,
                0.9598767161369324,
                0.22916670143604279
            ],
            "min" : [
                -0.22916670143604279,
                0,
                -0.22916670143604279
            ],
            "type" : "VEC3"
        },
        {
            "bufferView" : 1,
            "componentType" : 5126,
            "count" : 187,
            "type" : "VEC3"
        },
        {
            "bufferView" : 2,
            "componentType" : 5126,
            "count" : 187,
            "type" : "VEC2"
        },
        {
            "bufferView" : 3,
            "componentType" : 5123,
            "count" : 187,
            "type" : "VEC4"
        },
        {
            "bufferView" : 4,
            "componentType" : 5126,
            "count" : 187,
            "type" : "VEC4"
        },
        {
            "bufferView" : 5,
            "componentType" : 5123,
            "count" : 864,
            "type" : "SCALAR"
        },
        {
            "bufferView" : 6,
            "componentType" : 5126,
            "count" : 187,
            "max" : [
                0.09049096703529358,
                -0.014159798622131348,
                0.09049096703529358
            ],
            "min" : [
                -0.09049096703529358,
                -0.1046508252620697,
                -0.09049096703529358
            ],
            "type" : "VEC3"
        },
        {
            "bufferView" : 7,
            "componentType" : 5126,
            "count" : 187,
            "type" : "VEC3"
        },
        {
            "bufferView" : 8,
            "componentType" : 5126,
            "count" : 187,
            "max" : [
                0.2208995819091797,
                0.313499391078949,
                0.2208995819091797
            ],
            "min" : [
                -0.2208995819091797,
                0.09259980916976929,
                -0.2208995819091797
            ],
            "type" : "VEC3"
        },
        {
            "bufferView" : 9,
            "componentType" : 5126,
            "count" : 187,
            "type" : "VEC3"
        },
        {
            "bufferView" : 10,
            "componentType" : 5126,
            "count" : 187,
            "max" : [
                0.22916670143604279,
                0,
                0.22916670143604279
            ],
            "min" : [
                -0.22916670143604279,
                -0.9598767161369324,
                -0.22916670143604279
            ],
            "type" : "VEC3"
        },
        {
            "bufferView" : 11,
            "componentType" : 5126,
            "count" : 187,
            "type" : "VEC3"
        },
        {
            "bufferView" : 12,
            "componentType" : 5126,
            "count" : 187,
            "type" : "VEC2"
        },
        {
            "bufferView" : 13,
            "componentType" : 5123,
            "count" : 187,
            "type" : "VEC4"
        },
        {
            "bufferView" : 14,
            "componentType" : 5126,
            "count" : 187,
            "type" : "VEC4"
        },
        {
            "bufferView" : 15,
            "componentType" : 5123,
            "count" : 864,
            "type" : "SCALAR"
        },
        {
            "bufferView" : 16,
            "componentType" : 5126,
            "count" : 187,
            "max" : [
                0.09049096703529358,
                -0.10465079545974731,
                0.09049096703529358
            ],
            "min" : [
                -0.09049096703529358,
                -0.19514185190200806,
                -0.09049096703529358
            ],
            "type" : "VEC3"
        },
        {
            "bufferView" : 17,
            "componentType" : 5126,
            "count" : 187,
            "type" : "VEC3"
        },
        {
            "bufferView" : 18,
            "componentType" : 5126,
            "count" : 187,
            "max" : [
                0.2208995819091797,
                0.09259986877441406,
                0.2208995819091797
            ],
            "min" : [
                -0.2208995819091797,
                -0.12829965353012085,
                -0.2208995819091797
            ],
            "type" : "VEC3"
        },
        {
            "bufferView" : 19,
            "componentType" : 5126,
            "count" : 187,
            "type" : "VEC3"
        },
        {
            "bufferView" : 20,
            "componentType" : 5126,
            "count" : 2,
            "type" : "MAT4"
        },
        {
            "bufferView" : 21,
            "componentType" : 5126,
            "count" : 40,
            "max" : [
                1.6666666666666667
            ],
            "min" : [
                0.041666666666666664
            ],
            "type" : "SCALAR"
        },
        {
            "bufferView" : 22,
            "componentType" : 5126,
            "count" : 40,
            "type" : "VEC3"
        },
        {
            "bufferView" : 23,
            "componentType" : 5126,
            "count" : 40,
            "type" : "VEC4"
        },
        {
            "bufferView" : 24,
            "componentType" : 5126,
            "count" : 40,
            "type" : "VEC3"
        },
        {
            "bufferView" : 25,
            "componentType" : 5126,
            "count" : 40,
            "type" : "VEC3"
        },
        {
            "bufferView" : 26,
            "componentType" : 5126,
            "count" : 40,
            "type" : "VEC4"
        },
        {
            "bufferView" : 27,
            "componentType" : 5126,
            "count" : 40,
            "type" : "VEC3"
        }
    ],
    "bufferViews" : [
        {
            "buffer" : 0,
            "byteLength" : 2244,
            "byteOffset" : 0
        },
        {
            "buffer" : 0,
            "byteLength" : 2244,
            "byteOffset" : 2244
        },
        {
            "buffer" : 0,
            "byteLength" : 1496,
            "byteOffset" : 4488
        },
        {
            "buffer" : 0,
            "byteLength" : 1496,
            "byteOffset" : 5984
        },
        {
            "buffer" : 0,
            "byteLength" : 2992,
            "byteOffset" : 7480
        },
        {
            "buffer" : 0,
            "byteLength" : 1728,
            "byteOffset" : 10472
        },
        {
            "buffer" : 0,
            "byteLength" : 2244,
            "byteOffset" : 12200
        },
        {
            "buffer" : 0,
            "byteLength" : 2244,
            "byteOffset" : 14444
        },
        {
            "buffer" : 0,
            "byteLength" : 2244,
            "byteOffset" : 16688
        },
        {
            "buffer" : 0,
            "byteLength" : 2244,
            "byteOffset" : 18932
        },
        {
            "buffer" : 0,
            "byteLength" : 2244,
            "byteOffset" : 21176
        },
        {
            "buffer" : 0,
            "byteLength" : 2244,
            "byteOffset" : 23420
        },
        {
            "buffer" : 0,
            "byteLength" : 1496,
            "byteOffset" : 25664
        },
        {
            "buffer" : 0,
            "byteLength" : 1496,
            "byteOffset" : 27160
        },
        {
            "buffer" : 0,
            "byteLength" : 2992,
            "byteOffset" : 28656
        },
        {
            "buffer" : 0,
            "byteLength" : 1728,
            "byteOffset" : 31648
        },
        {
            "buffer" : 0,
            "byteLength" : 2244,
            "byteOffset" : 33376
        },
        {
            "buffer" : 0,
            "byteLength" : 2244,
            "byteOffset" : 35620
        },
        {
            "buffer" : 0,
            "byteLength" : 2244,
            "byteOffset" : 37864
        },
        {
            "buffer" : 0,
            "byteLength" : 2244,
            "byteOffset" : 40108
        },
        {
            "buffer" : 0,
            "byteLength" : 128,
            "byteOffset" : 42352
        },
        {
            "buffer" : 0,
            "byteLength" : 160,
            "byteOffset" : 42480
        },
        {
            "buffer" : 0,
            "byteLength" : 480,
            "byteOffset" : 42640
        },
        {
            "buffer" : 0,
            "byteLength" : 640,
            "byteOffset" : 43120
        },
        {
            "buffer" : 0,
            "byteLength" : 480,
            "byteOffset" : 43760
        },
        {
            "buffer" : 0,
            "byteLength" : 480,
            "byteOffset" : 44240
        },
        {
            "buffer" : 0,
            "byteLength" : 640,
            "byteOffset" : 44720
        },
        {
            "buffer" : 0,
            "byteLength" : 480,
            "byteOffset" : 45360
        }
    ],
    "buffers" : [
        {
            "byteLength" : 45840,
            "uri" : "data:application/octet-stream;base64,"
        }
    ]
}
