{
    "asset" : {
        "generator" : "Khronos glTF Blender I/O v1.3.48",
        "version" : "2.0"
    },
    "scene" : 0,
    "scenes" : [
        {
            "name" : "Scene",
            "nodes" : [
                3
            ]
        }
    ],
    "nodes" : [
        {
            "name" : "LowerArm",
            "translation" : [
                0,
                0.8740102052688599,
                0
            ]
        },
        {
            "children" : [
                0
            ],
            "name" : "UpperArm",
            "rotation" : [
                0.7071068286895752,
                0,
                -0.7071068286895752,
                0
            ],
            "translation" : [
                0,
                0.8756550550460815,
                0
            ]
        },
        {
            "mesh" : 0,
            "name" : "SkinnedMesh_1Mat_1Blend",
            "skin" : 0
        },
        {
            "children" : [
                2,
                1
            ],
            "name" : "SkinnedMesh_1Mat_1Blend_Armature"
        }
    ],
    "animations" : [
        {
            "channels" : [
                {
                    "sampler" : 0,
                    "target" : {
                        "node" : 1,
                        "path" : "translation"
                    }
                },
                {
                    "sampler" : 1,
                    "target" : {
                        "node" : 1,
                        "path" : "rotation"
                    }
                },
                {
                    "sampler" : 2,
                    "target" : {
                        "node" : 1,
                        "path" : "scale"
                    }
                },
                {
                    "sampler" : 3,
                    "target" : {
                        "node" : 0,
                        "path" : "translation"
                    }
                },
                {
                    "sampler" : 4,
                    "target" : {
                        "node" : 0,
                        "path" : "rotation"
                    }
                },
                {
                    "sampler" : 5,
                    "target" : {
                        "node" : 0,
                        "path" : "scale"
                    }
                }
            ],
            "name" : "ArmBend.002",
            "samplers" : [
                {
                    "input" : 9,
                    "interpolation" : "LINEAR",
                    "output" : 10
                },
                {
                    "input" : 9,
                    "interpolation" : "LINEAR",
                    "output" : 11
                },
                {
                    "input" : 9,
                    "interpolation" : "LINEAR",
                    "output" : 12
                },
                {
                    "input" : 9,
                    "interpolation" : "LINEAR",
                    "output" : 13
                },
                {
                    "input" : 9,
                    "interpolation" : "LINEAR",
                    "output" : 14
                },
                {
                    "input" : 9,
                    "interpolation" : "LINEAR",
                    "output" : 15
                }
            ]
        }
    ],
    "materials" : [
        {
            "emissiveFactor" : [
                0,
                0,
                0
            ],
            "name" : "SkinnedMesh_1Mat_1Blend_Mat",
            "pbrMetallicRoughness" : {
                "baseColorFactor" : [
                    0.8000000715255737,
                    0.22563819587230682,
                    0.05921776965260506,
                    1
                ],
                "metallicFactor" : 0,
                "roughnessFactor" : 0.5
            }
        }
    ],
    "meshes" : [
        {
            "extras" : {
                "targetNames" : [
                    "Key 1"
                ]
            },
            "name" : "skinned_mesh.002",
            "primitives" : [
                {
                    "attributes" : {
                        "POSITION" : 0,
                        "NORMAL" : 1,
                        "TEXCOORD_0" : 2,
                        "JOINTS_0" : 3,
                        "WEIGHTS_0" : 4
                    },
                    "indices" : 5,
                    "material" : 0,
                    "targets" : [
                        {
                            "POSITION" : 6,
                            "NORMAL" : 7
                        }
                    ]
                }
            ],
            "weights" : [
                0
            ]
        }
    ],
    "skins" : [
        {
            "inverseBindMatrices" : 8,
            "joints" : [
                1,
                0
            ],
            "name" : "SkinnedMesh_1Mat_1Blend_Armature"
        }
    ],
    "accessors" : [
        {
            "bufferView" : 0,
            "componentType" : 5126,
            "count" : 357,
            "max" : [
                0.22916670143604279,
                0.9598767161369324,
                0.22916670143604279
            ],
            "min" : [
                -0.22916670143604279,
                -0.9598767161369324,
                -0.22916670143604279
            ],
            "type" : "VEC3"
        },
        {
            "bufferView" : 1,
            "componentType" : 5126,
            "count" : 357,
            "type" : "VEC3"
        },
        {
            "bufferView" : 2,
            "componentType" : 5126,
            "count" : 357,
            "type" : "VEC2"
        },
        {
            "bufferView" : 3,
            "componentType" : 5123,
            "count" : 357,
            "type" : "VEC4"
        },
        {
            "bufferView" : 4,
            "componentType" : 5126,
            "count" : 357,
            "type" : "VEC4"
        },
        {
            "bufferView" : 5,
            "componentType" : 5123,
            "count" : 1728,
            "type" : "SCALAR"
        },
        {
            "bufferView" : 6,
            "componentType" : 5126,
            "count" : 357,
            "max" : [
                0.09049096703529358,
                -0.014159798622131348,
                0.09049096703529358
            ],
            "min" : [
                -0.09049096703529358,
                -0.19514185190200806,
                -0.09049096703529358
            ],
            "type" : "VEC3"
        },
        {
            "bufferView" : 7,
            "componentType" : 5126,
            "count" : 357,
            "type" : "VEC3"
        },
        {
            "bufferView" : 8,
            "componentType" : 5126,
            "count" : 2,
            "type" : "MAT4"
        },
        {
            "bufferView" : 9,
            "componentType" : 5126,
            "count" : 40,
            "max" : [
                1.6666666666666667
            ],
            "min" : [
                0.041666666666666664
            ],
            "type" : "SCALAR"
        },
        {
            "bufferView" : 10,
            "componentType" : 5126,
            "count" : 40,
            "type" : "VEC3"
        },
        {
            "bufferView" : 11,
            "componentType" : 5126,
            "count" : 40,
            "type" : "VEC4"
        },
        {
            "bufferView" : 12,
            "componentType" : 5126,
            "count" : 40,
            "type" : "VEC3"
        },
        {
            "bufferView" : 13,
            "componentType" : 5126,
            "count" : 40,
            "type" : "VEC3"
        },
        {
            "bufferView" : 14,
            "componentType" : 5126,
            "count" : 40,
            "type" : "VEC4"
        },
        {
            "bufferView" : 15,
            "componentType" : 5126,
            "count" : 40,
            "type" : "VEC3"
        }
    ],
    "bufferViews" : [
        {
            "buffer" : 0,
            "byteLength" : 4284,
            "byteOffset" : 0
        },
        {
            "buffer" : 0,
            "byteLength" : 4284,
            "byteOffset" : 4284
        },
        {
            "buffer" : 0,
            "byteLength" : 2856,
            "byteOffset" : 8568
        },
        {
            "buffer" : 0,
            "byteLength" : 2856,
            "byteOffset" : 11424
        },
        {
            "buffer" : 0,
            "byteLength" : 5712,
            "byteOffset" : 14280
        },
        {
            "buffer" : 0,
            "byteLength" : 3456,
            "byteOffset" : 19992
        },
        {
            "buffer" : 0,
            "byteLength" : 4284,
            "byteOffset" : 23448
        },
        {
            "buffer" : 0,
            "byteLength" : 4284,
            "byteOffset" : 27732
        },
        {
            "buffer" : 0,
            "byteLength" : 128,
            "byteOffset" : 32016
        },
        {
            "buffer" : 0,
            "byteLength" : 160,
            "byteOffset" : 32144
        },
        {
            "buffer" : 0,
            "byteLength" : 480,
            "byteOffset" : 32304
        },
        {
            "buffer" : 0,
            "byteLength" : 640,
            "byteOffset" : 32784
        },
        {
            "buffer" : 0,
            "byteLength" : 480,
            "byteOffset" : 33424
        },
        {
            "buffer" : 0,
            "byteLength" : 480,
            "byteOffset" : 33904
        },
        {
            "buffer" : 0,
            "byteLength" : 640,
            "byteOffset" : 34384
        },
        {
            "buffer" : 0,
            "byteLength" : 480,
            "byteOffset" : 35024
        }
    ],
    "buffers" : [
        {
            "byteLength" : 35504,
            "uri" : "data:application/octet-stream;base64,"
        }
    ]
}
